<?xml version="1.0" encoding="UTF-8"?>
<svg xmlns="http://www.w3.org/2000/svg" xmlns:xlink="http://www.w3.org/1999/xlink" width="100px" height="113px" viewBox="0 0 100 112" version="1.1">
<g id="surface1">
<path style=" stroke:none;fill-rule:nonzero;fill:rgb(36.078431%,55.294118%,73.72549%);fill-opacity:1;" d="M 99.832031 32.945312 C 99.832031 31.066406 99.425781 29.40625 98.609375 27.980469 C 97.808594 26.582031 96.609375 25.40625 95 24.476562 C 81.707031 16.851562 68.40625 9.242188 55.117188 1.609375 C 51.535156 -0.449219 48.0625 -0.375 44.507812 1.710938 C 39.21875 4.816406 12.730469 19.921875 4.839844 24.472656 C 1.585938 26.347656 0.0078125 29.214844 0.00390625 32.941406 C 0 48.28125 0.00390625 63.625 0 78.964844 C 0 80.804688 0.386719 82.429688 1.167969 83.832031 C 1.96875 85.277344 3.1875 86.484375 4.832031 87.433594 C 12.726562 91.984375 39.214844 107.085938 44.503906 110.195312 C 48.0625 112.28125 51.535156 112.359375 55.117188 110.296875 C 68.40625 102.660156 81.710938 95.054688 95.003906 87.425781 C 96.652344 86.476562 97.867188 85.269531 98.667969 83.828125 C 99.449219 82.425781 99.835938 80.800781 99.835938 78.960938 C 99.835938 78.960938 99.835938 48.285156 99.832031 32.945312 "/>
<path style=" stroke:none;fill-rule:nonzero;fill:rgb(10.196078%,27.45098%,45.490196%);fill-opacity:1;" d="M 50.070312 55.804688 L 1.167969 83.832031 C 1.96875 85.277344 3.1875 86.484375 4.832031 87.433594 C 12.726562 91.984375 39.214844 107.085938 44.503906 110.195312 C 48.0625 112.28125 51.535156 112.359375 55.117188 110.296875 C 68.40625 102.660156 81.710938 95.054688 95.003906 87.425781 C 96.652344 86.476562 97.867188 85.269531 98.667969 83.828125 L 50.070312 55.804688 "/>
<path style=" stroke:none;fill-rule:nonzero;fill:rgb(10.196078%,27.45098%,45.490196%);fill-opacity:1;" d="M 35.585938 64.105469 C 38.433594 69.050781 43.78125 72.386719 49.917969 72.386719 C 56.09375 72.386719 61.472656 69.007812 64.304688 64.011719 L 50.070312 55.804688 L 35.585938 64.105469 "/>
<path style=" stroke:none;fill-rule:nonzero;fill:rgb(10.588235%,34.901961%,55.686275%);fill-opacity:1;" d="M 99.832031 32.945312 C 99.832031 31.066406 99.425781 29.40625 98.609375 27.980469 L 50.070312 55.804688 L 98.671875 83.828125 C 99.449219 82.425781 99.835938 80.800781 99.835938 78.960938 C 99.835938 78.960938 99.835938 48.285156 99.832031 32.945312 "/>
<path style=" stroke:none;fill-rule:nonzero;fill:rgb(100%,100%,100%);fill-opacity:1;" d="M 97.160156 57.808594 L 93.363281 57.808594 L 93.363281 61.589844 L 89.5625 61.589844 L 89.5625 57.808594 L 85.765625 57.808594 L 85.765625 54.027344 L 89.5625 54.027344 L 89.5625 50.246094 L 93.363281 50.246094 L 93.363281 54.027344 L 97.160156 54.027344 L 97.160156 57.808594 M 83.300781 57.808594 L 79.503906 57.808594 L 79.503906 61.589844 L 75.707031 61.589844 L 75.707031 57.808594 L 71.910156 57.808594 L 71.910156 54.027344 L 75.707031 54.027344 L 75.707031 50.246094 L 79.503906 50.246094 L 79.503906 54.027344 L 83.300781 54.027344 L 83.300781 57.808594 "/>
<path style=" stroke:none;fill-rule:nonzero;fill:rgb(100%,100%,100%);fill-opacity:1;" d="M 64.304688 64.011719 C 61.472656 69.007812 56.09375 72.386719 49.917969 72.386719 C 43.78125 72.386719 38.433594 69.050781 35.585938 64.105469 C 34.15625 61.625 33.40625 58.8125 33.410156 55.953125 C 33.410156 46.875 40.800781 39.519531 49.917969 39.519531 C 56.015625 39.519531 61.335938 42.8125 64.195312 47.707031 L 78.625 39.4375 C 72.890625 29.582031 62.183594 22.949219 49.917969 22.949219 C 31.605469 22.949219 16.765625 37.726562 16.765625 55.953125 C 16.765625 61.933594 18.363281 67.539062 21.15625 72.378906 C 26.875 82.285156 37.613281 88.957031 49.917969 88.957031 C 62.246094 88.957031 73 82.257812 78.710938 72.320312 L 64.304688 64.011719 "/>
</g>
</svg>
